<mxfile host="Electron" agent="Mozilla/5.0 (Macintosh; Intel Mac OS X 10_15_7) AppleWebKit/537.36 (KHTML, like Gecko) draw.io/24.7.5 Chrome/126.0.6478.183 Electron/31.3.0 Safari/537.36" version="24.7.5">
  <diagram name="第 1 页" id="ApgFk5VkSXTL5hs3d6Di">
    <mxGraphModel dx="2879" dy="2513" grid="1" gridSize="10" guides="1" tooltips="1" connect="1" arrows="1" fold="1" page="1" pageScale="1" pageWidth="827" pageHeight="1169" math="0" shadow="0">
      <root>
        <mxCell id="0" />
        <mxCell id="1" parent="0" />
        <mxCell id="LboXFsF9XmnN8-vTOQ00-30" style="rounded=0;orthogonalLoop=1;jettySize=auto;html=1;entryX=0;entryY=1;entryDx=0;entryDy=0;endArrow=none;endFill=0;exitX=1;exitY=0;exitDx=0;exitDy=0;" parent="1" source="LboXFsF9XmnN8-vTOQ00-2" target="LboXFsF9XmnN8-vTOQ00-19" edge="1">
          <mxGeometry relative="1" as="geometry">
            <mxPoint x="660" y="220.00000000000045" as="sourcePoint" />
          </mxGeometry>
        </mxCell>
        <mxCell id="8bBd86aQSy4LQbKgWkZF-2" value="&lt;font style=&quot;font-size: 18px;&quot;&gt;1:n&lt;/font&gt;" style="edgeLabel;html=1;align=center;verticalAlign=middle;resizable=0;points=[];" parent="LboXFsF9XmnN8-vTOQ00-30" vertex="1" connectable="0">
          <mxGeometry x="0.1083" relative="1" as="geometry">
            <mxPoint x="1" as="offset" />
          </mxGeometry>
        </mxCell>
        <mxCell id="8bBd86aQSy4LQbKgWkZF-1" style="rounded=0;orthogonalLoop=1;jettySize=auto;html=1;entryX=1;entryY=0.25;entryDx=0;entryDy=0;endArrow=none;endFill=0;" parent="1" source="LboXFsF9XmnN8-vTOQ00-2" target="LboXFsF9XmnN8-vTOQ00-36" edge="1">
          <mxGeometry relative="1" as="geometry" />
        </mxCell>
        <mxCell id="8bBd86aQSy4LQbKgWkZF-4" value="&lt;font style=&quot;font-size: 18px;&quot;&gt;n:1&lt;/font&gt;" style="edgeLabel;html=1;align=center;verticalAlign=middle;resizable=0;points=[];" parent="8bBd86aQSy4LQbKgWkZF-1" vertex="1" connectable="0">
          <mxGeometry x="0.0126" y="-1" relative="1" as="geometry">
            <mxPoint x="-1" y="1" as="offset" />
          </mxGeometry>
        </mxCell>
        <mxCell id="8bBd86aQSy4LQbKgWkZF-5" style="rounded=0;orthogonalLoop=1;jettySize=auto;html=1;entryX=0;entryY=0.25;entryDx=0;entryDy=0;endArrow=none;endFill=0;dashed=1;dashPattern=8 8;" parent="1" source="LboXFsF9XmnN8-vTOQ00-2" target="LboXFsF9XmnN8-vTOQ00-49" edge="1">
          <mxGeometry relative="1" as="geometry" />
        </mxCell>
        <mxCell id="LboXFsF9XmnN8-vTOQ00-2" value="基础商品—SPU" style="swimlane;childLayout=stackLayout;horizontal=1;startSize=50;horizontalStack=0;rounded=1;fontSize=14;fontStyle=0;strokeWidth=2;resizeParent=0;resizeLast=1;shadow=0;dashed=0;align=center;arcSize=4;whiteSpace=wrap;html=1;" parent="1" vertex="1">
          <mxGeometry x="310" y="150" width="160" height="140" as="geometry" />
        </mxCell>
        <mxCell id="LboXFsF9XmnN8-vTOQ00-3" value="&lt;font style=&quot;font-size: 14px;&quot;&gt;SPU基础信息&lt;/font&gt;&lt;div&gt;&lt;font size=&quot;3&quot;&gt;商品生效状态&lt;/font&gt;&lt;/div&gt;&lt;div&gt;&lt;font size=&quot;3&quot;&gt;适用渠道&lt;br&gt;MDM冗余信息&lt;/font&gt;&lt;/div&gt;" style="align=left;strokeColor=none;fillColor=none;spacingLeft=4;fontSize=12;verticalAlign=top;resizable=0;rotatable=0;part=1;html=1;" parent="LboXFsF9XmnN8-vTOQ00-2" vertex="1">
          <mxGeometry y="50" width="160" height="90" as="geometry" />
        </mxCell>
        <mxCell id="LboXFsF9XmnN8-vTOQ00-31" style="edgeStyle=orthogonalEdgeStyle;rounded=0;orthogonalLoop=1;jettySize=auto;html=1;entryX=0;entryY=0.5;entryDx=0;entryDy=0;endArrow=none;endFill=0;" parent="1" source="LboXFsF9XmnN8-vTOQ00-10" target="LboXFsF9XmnN8-vTOQ00-28" edge="1">
          <mxGeometry relative="1" as="geometry" />
        </mxCell>
        <mxCell id="LboXFsF9XmnN8-vTOQ00-93" value="&lt;font style=&quot;font-size: 18px;&quot;&gt;1:n&lt;/font&gt;" style="edgeLabel;html=1;align=center;verticalAlign=middle;resizable=0;points=[];" parent="LboXFsF9XmnN8-vTOQ00-31" vertex="1" connectable="0">
          <mxGeometry x="0.0048" relative="1" as="geometry">
            <mxPoint as="offset" />
          </mxGeometry>
        </mxCell>
        <mxCell id="LboXFsF9XmnN8-vTOQ00-10" value="&lt;font style=&quot;font-size: 18px;&quot;&gt;基础商品—SKU&lt;/font&gt;" style="swimlane;childLayout=stackLayout;horizontal=1;startSize=50;horizontalStack=0;rounded=1;fontSize=14;fontStyle=0;strokeWidth=2;resizeParent=0;resizeLast=1;shadow=0;dashed=0;align=center;arcSize=4;whiteSpace=wrap;html=1;" parent="1" vertex="1">
          <mxGeometry x="310" y="350" width="160" height="190" as="geometry" />
        </mxCell>
        <mxCell id="LboXFsF9XmnN8-vTOQ00-11" value="&lt;div&gt;&lt;font style=&quot;font-size: 14px;&quot;&gt;SPU ID&lt;/font&gt;&lt;/div&gt;&lt;div&gt;&lt;font style=&quot;font-size: 14px;&quot;&gt;SKU ID&lt;/font&gt;&lt;/div&gt;&lt;div&gt;&lt;font size=&quot;3&quot;&gt;规格&lt;/font&gt;&lt;/div&gt;&lt;div&gt;&lt;font size=&quot;3&quot;&gt;SKU价格&lt;/font&gt;&lt;/div&gt;&lt;div&gt;&lt;font size=&quot;3&quot;&gt;SKU基础信息&lt;/font&gt;&lt;/div&gt;&lt;div&gt;&lt;font size=&quot;3&quot;&gt;MDM冗余信息&lt;/font&gt;&lt;/div&gt;" style="align=left;strokeColor=none;fillColor=none;spacingLeft=4;fontSize=12;verticalAlign=top;resizable=0;rotatable=0;part=1;html=1;" parent="LboXFsF9XmnN8-vTOQ00-10" vertex="1">
          <mxGeometry y="50" width="160" height="140" as="geometry" />
        </mxCell>
        <mxCell id="LboXFsF9XmnN8-vTOQ00-12" value="&lt;font style=&quot;font-size: 18px;&quot;&gt;poskey&lt;/font&gt;" style="swimlane;childLayout=stackLayout;horizontal=1;startSize=50;horizontalStack=0;rounded=1;fontSize=14;fontStyle=0;strokeWidth=2;resizeParent=0;resizeLast=1;shadow=0;dashed=0;align=center;arcSize=4;whiteSpace=wrap;html=1;fillColor=#E6E6E6;" parent="1" vertex="1">
          <mxGeometry x="310" y="630" width="160" height="120" as="geometry" />
        </mxCell>
        <mxCell id="LboXFsF9XmnN8-vTOQ00-13" value="&lt;div&gt;&lt;font style=&quot;font-size: 14px;&quot;&gt;SKU ID&lt;/font&gt;&lt;/div&gt;&lt;div&gt;&lt;font size=&quot;3&quot;&gt;poskey&lt;/font&gt;&lt;/div&gt;&lt;font size=&quot;3&quot;&gt;NGBOH冗余数据&lt;/font&gt;" style="align=left;strokeColor=none;fillColor=none;spacingLeft=4;fontSize=12;verticalAlign=top;resizable=0;rotatable=0;part=1;html=1;" parent="LboXFsF9XmnN8-vTOQ00-12" vertex="1">
          <mxGeometry y="50" width="160" height="70" as="geometry" />
        </mxCell>
        <mxCell id="LboXFsF9XmnN8-vTOQ00-14" style="edgeStyle=orthogonalEdgeStyle;rounded=0;orthogonalLoop=1;jettySize=auto;html=1;entryX=0.5;entryY=0;entryDx=0;entryDy=0;startArrow=none;startFill=0;endArrow=none;endFill=0;" parent="1" source="LboXFsF9XmnN8-vTOQ00-3" target="LboXFsF9XmnN8-vTOQ00-10" edge="1">
          <mxGeometry relative="1" as="geometry" />
        </mxCell>
        <mxCell id="LboXFsF9XmnN8-vTOQ00-96" value="&lt;font style=&quot;font-size: 18px;&quot;&gt;1:n&lt;/font&gt;" style="edgeLabel;html=1;align=center;verticalAlign=middle;resizable=0;points=[];" parent="LboXFsF9XmnN8-vTOQ00-14" vertex="1" connectable="0">
          <mxGeometry x="-0.0738" y="2" relative="1" as="geometry">
            <mxPoint as="offset" />
          </mxGeometry>
        </mxCell>
        <mxCell id="LboXFsF9XmnN8-vTOQ00-15" style="edgeStyle=orthogonalEdgeStyle;rounded=0;orthogonalLoop=1;jettySize=auto;html=1;entryX=0.5;entryY=0;entryDx=0;entryDy=0;endArrow=none;endFill=0;" parent="1" source="LboXFsF9XmnN8-vTOQ00-11" target="LboXFsF9XmnN8-vTOQ00-12" edge="1">
          <mxGeometry relative="1" as="geometry" />
        </mxCell>
        <mxCell id="LboXFsF9XmnN8-vTOQ00-94" value="&lt;font style=&quot;font-size: 18px;&quot;&gt;1:n&lt;/font&gt;" style="edgeLabel;html=1;align=center;verticalAlign=middle;resizable=0;points=[];" parent="LboXFsF9XmnN8-vTOQ00-15" vertex="1" connectable="0">
          <mxGeometry x="-0.0591" y="-1" relative="1" as="geometry">
            <mxPoint as="offset" />
          </mxGeometry>
        </mxCell>
        <mxCell id="LboXFsF9XmnN8-vTOQ00-16" value="&lt;font style=&quot;font-size: 18px;&quot;&gt;商品规格&lt;/font&gt;" style="swimlane;childLayout=stackLayout;horizontal=1;startSize=50;horizontalStack=0;rounded=1;fontSize=14;fontStyle=0;strokeWidth=2;resizeParent=0;resizeLast=1;shadow=0;dashed=0;align=center;arcSize=4;whiteSpace=wrap;html=1;" parent="1" vertex="1">
          <mxGeometry x="80" y="-40" width="160" height="120" as="geometry" />
        </mxCell>
        <mxCell id="LboXFsF9XmnN8-vTOQ00-17" value="&lt;font style=&quot;font-size: 14px;&quot;&gt;规格信息（温度/杯型/咖啡豆）&lt;/font&gt;" style="align=left;strokeColor=none;fillColor=none;spacingLeft=4;fontSize=12;verticalAlign=top;resizable=0;rotatable=0;part=1;html=1;" parent="LboXFsF9XmnN8-vTOQ00-16" vertex="1">
          <mxGeometry y="50" width="160" height="70" as="geometry" />
        </mxCell>
        <mxCell id="LboXFsF9XmnN8-vTOQ00-18" value="&lt;font style=&quot;font-size: 18px;&quot;&gt;配料&lt;/font&gt;" style="swimlane;childLayout=stackLayout;horizontal=1;startSize=50;horizontalStack=0;rounded=1;fontSize=14;fontStyle=0;strokeWidth=2;resizeParent=0;resizeLast=1;shadow=0;dashed=0;align=center;arcSize=4;whiteSpace=wrap;html=1;" parent="1" vertex="1">
          <mxGeometry x="560" y="-40" width="160" height="120" as="geometry" />
        </mxCell>
        <mxCell id="LboXFsF9XmnN8-vTOQ00-19" value="&lt;font style=&quot;font-size: 14px;&quot;&gt;配料基础信息&lt;/font&gt;&lt;div&gt;&lt;font size=&quot;3&quot;&gt;配料组层级信息&lt;/font&gt;&lt;/div&gt;" style="align=left;strokeColor=none;fillColor=none;spacingLeft=4;fontSize=12;verticalAlign=top;resizable=0;rotatable=0;part=1;html=1;" parent="LboXFsF9XmnN8-vTOQ00-18" vertex="1">
          <mxGeometry y="50" width="160" height="70" as="geometry" />
        </mxCell>
        <mxCell id="LboXFsF9XmnN8-vTOQ00-28" value="&lt;font style=&quot;font-size: 18px;&quot;&gt;客制化&lt;/font&gt;" style="swimlane;childLayout=stackLayout;horizontal=1;startSize=50;horizontalStack=0;rounded=1;fontSize=14;fontStyle=0;strokeWidth=2;resizeParent=0;resizeLast=1;shadow=0;dashed=0;align=center;arcSize=4;whiteSpace=wrap;html=1;" parent="1" vertex="1">
          <mxGeometry x="630" y="365" width="160" height="160" as="geometry" />
        </mxCell>
        <mxCell id="LboXFsF9XmnN8-vTOQ00-29" value="&lt;font style=&quot;font-size: 14px;&quot;&gt;SKU ID&lt;/font&gt;&lt;div&gt;&lt;font size=&quot;3&quot;&gt;配料 ID&lt;/font&gt;&lt;/div&gt;&lt;div&gt;&lt;font size=&quot;3&quot;&gt;客制化规则信息&lt;/font&gt;&lt;/div&gt;" style="align=left;strokeColor=none;fillColor=none;spacingLeft=4;fontSize=12;verticalAlign=top;resizable=0;rotatable=0;part=1;html=1;" parent="LboXFsF9XmnN8-vTOQ00-28" vertex="1">
          <mxGeometry y="50" width="160" height="110" as="geometry" />
        </mxCell>
        <mxCell id="LboXFsF9XmnN8-vTOQ00-35" value="&lt;font style=&quot;font-size: 18px;&quot;&gt;配方（Bom）&lt;/font&gt;" style="swimlane;childLayout=stackLayout;horizontal=1;startSize=50;horizontalStack=0;rounded=1;fontSize=14;fontStyle=0;strokeWidth=2;resizeParent=0;resizeLast=1;shadow=0;dashed=0;align=center;arcSize=4;whiteSpace=wrap;html=1;fillColor=#E6E6E6;" parent="1" vertex="1">
          <mxGeometry x="-20" y="200" width="160" height="140" as="geometry" />
        </mxCell>
        <mxCell id="LboXFsF9XmnN8-vTOQ00-36" value="&lt;div&gt;&lt;font style=&quot;font-size: 14px;&quot;&gt;SPU ID&lt;/font&gt;&lt;/div&gt;&lt;div&gt;&lt;font size=&quot;3&quot;&gt;Polar商品id&lt;/font&gt;&lt;/div&gt;&lt;div&gt;&lt;font size=&quot;3&quot;&gt;规格&lt;/font&gt;&lt;/div&gt;&lt;div&gt;&lt;font size=&quot;3&quot;&gt;配方信息&lt;/font&gt;&lt;/div&gt;" style="align=left;strokeColor=none;fillColor=none;spacingLeft=4;fontSize=12;verticalAlign=top;resizable=0;rotatable=0;part=1;html=1;" parent="LboXFsF9XmnN8-vTOQ00-35" vertex="1">
          <mxGeometry y="50" width="160" height="90" as="geometry" />
        </mxCell>
        <mxCell id="LboXFsF9XmnN8-vTOQ00-39" value="" style="rounded=0;orthogonalLoop=1;jettySize=auto;html=1;entryX=0;entryY=0;entryDx=0;entryDy=0;endArrow=none;endFill=0;exitX=1;exitY=1;exitDx=0;exitDy=0;" parent="1" source="LboXFsF9XmnN8-vTOQ00-17" target="LboXFsF9XmnN8-vTOQ00-2" edge="1">
          <mxGeometry relative="1" as="geometry">
            <mxPoint x="90" y="220" as="sourcePoint" />
            <mxPoint x="180.00000000000682" y="150" as="targetPoint" />
          </mxGeometry>
        </mxCell>
        <mxCell id="8bBd86aQSy4LQbKgWkZF-3" value="&lt;font style=&quot;font-size: 18px;&quot;&gt;n:1&lt;/font&gt;" style="edgeLabel;html=1;align=center;verticalAlign=middle;resizable=0;points=[];" parent="LboXFsF9XmnN8-vTOQ00-39" vertex="1" connectable="0">
          <mxGeometry x="-0.002" y="2" relative="1" as="geometry">
            <mxPoint y="1" as="offset" />
          </mxGeometry>
        </mxCell>
        <mxCell id="LboXFsF9XmnN8-vTOQ00-48" value="&lt;font style=&quot;font-size: 18px;&quot;&gt;渠道商品—SPU&lt;/font&gt;" style="swimlane;childLayout=stackLayout;horizontal=1;startSize=50;horizontalStack=0;rounded=1;fontSize=14;fontStyle=0;strokeWidth=2;resizeParent=0;resizeLast=1;shadow=0;dashed=0;align=center;arcSize=4;whiteSpace=wrap;html=1;" parent="1" vertex="1">
          <mxGeometry x="1283" y="150" width="160" height="120" as="geometry" />
        </mxCell>
        <mxCell id="LboXFsF9XmnN8-vTOQ00-49" value="&lt;div style=&quot;&quot;&gt;&lt;font style=&quot;font-size: 14px;&quot;&gt;渠道&lt;/font&gt;&lt;/div&gt;&lt;font size=&quot;3&quot; style=&quot;&quot;&gt;SPU基础信息&lt;/font&gt;&lt;div style=&quot;&quot;&gt;&lt;font size=&quot;3&quot; style=&quot;&quot;&gt;渠道商品信息&lt;/font&gt;&lt;/div&gt;&lt;div style=&quot;font-size: 14px;&quot;&gt;&lt;br&gt;&lt;/div&gt;" style="align=left;strokeColor=none;fillColor=none;spacingLeft=4;fontSize=12;verticalAlign=top;resizable=0;rotatable=0;part=1;html=1;" parent="LboXFsF9XmnN8-vTOQ00-48" vertex="1">
          <mxGeometry y="50" width="160" height="70" as="geometry" />
        </mxCell>
        <mxCell id="LboXFsF9XmnN8-vTOQ00-50" style="edgeStyle=orthogonalEdgeStyle;rounded=0;orthogonalLoop=1;jettySize=auto;html=1;entryX=1;entryY=0.25;entryDx=0;entryDy=0;endArrow=none;endFill=0;" parent="1" source="LboXFsF9XmnN8-vTOQ00-51" target="LboXFsF9XmnN8-vTOQ00-62" edge="1">
          <mxGeometry relative="1" as="geometry" />
        </mxCell>
        <mxCell id="LboXFsF9XmnN8-vTOQ00-92" value="&lt;font style=&quot;font-size: 18px;&quot;&gt;n:1&lt;/font&gt;" style="edgeLabel;html=1;align=center;verticalAlign=middle;resizable=0;points=[];" parent="LboXFsF9XmnN8-vTOQ00-50" vertex="1" connectable="0">
          <mxGeometry x="0.0625" y="-1" relative="1" as="geometry">
            <mxPoint as="offset" />
          </mxGeometry>
        </mxCell>
        <mxCell id="LboXFsF9XmnN8-vTOQ00-51" value="&lt;font style=&quot;font-size: 18px;&quot;&gt;渠道商品—SKU&lt;/font&gt;" style="swimlane;childLayout=stackLayout;horizontal=1;startSize=50;horizontalStack=0;rounded=1;fontSize=14;fontStyle=0;strokeWidth=2;resizeParent=0;resizeLast=1;shadow=0;dashed=0;align=center;arcSize=4;whiteSpace=wrap;html=1;" parent="1" vertex="1">
          <mxGeometry x="1255" y="340" width="216" height="210" as="geometry" />
        </mxCell>
        <mxCell id="LboXFsF9XmnN8-vTOQ00-52" value="&lt;div&gt;&lt;font style=&quot;font-size: 14px;&quot;&gt;SPU ID&lt;/font&gt;&lt;/div&gt;&lt;div&gt;&lt;font style=&quot;font-size: 14px;&quot;&gt;SKU ID&lt;/font&gt;&lt;/div&gt;&lt;div&gt;&lt;font size=&quot;3&quot;&gt;规格&lt;/font&gt;&lt;/div&gt;&lt;div&gt;&lt;font size=&quot;3&quot;&gt;sku编码（旧数据填的poskey）&lt;/font&gt;&lt;/div&gt;&lt;div&gt;&lt;font size=&quot;3&quot;&gt;SKU价格&lt;/font&gt;&lt;/div&gt;&lt;div&gt;&lt;font size=&quot;3&quot;&gt;SKU基础信息&lt;/font&gt;&lt;/div&gt;" style="align=left;strokeColor=none;fillColor=none;spacingLeft=4;fontSize=12;verticalAlign=top;resizable=0;rotatable=0;part=1;html=1;" parent="LboXFsF9XmnN8-vTOQ00-51" vertex="1">
          <mxGeometry y="50" width="216" height="160" as="geometry" />
        </mxCell>
        <mxCell id="LboXFsF9XmnN8-vTOQ00-55" style="edgeStyle=orthogonalEdgeStyle;rounded=0;orthogonalLoop=1;jettySize=auto;html=1;entryX=0.5;entryY=0;entryDx=0;entryDy=0;startArrow=none;startFill=0;endArrow=none;endFill=0;" parent="1" source="LboXFsF9XmnN8-vTOQ00-49" target="LboXFsF9XmnN8-vTOQ00-51" edge="1">
          <mxGeometry relative="1" as="geometry" />
        </mxCell>
        <mxCell id="LboXFsF9XmnN8-vTOQ00-91" value="&lt;font style=&quot;font-size: 18px;&quot;&gt;1:n&lt;/font&gt;" style="edgeLabel;html=1;align=center;verticalAlign=middle;resizable=0;points=[];" parent="LboXFsF9XmnN8-vTOQ00-55" vertex="1" connectable="0">
          <mxGeometry x="-0.0747" relative="1" as="geometry">
            <mxPoint as="offset" />
          </mxGeometry>
        </mxCell>
        <mxCell id="LboXFsF9XmnN8-vTOQ00-61" value="&lt;font style=&quot;font-size: 18px;&quot;&gt;渠道客制化&lt;/font&gt;" style="swimlane;childLayout=stackLayout;horizontal=1;startSize=50;horizontalStack=0;rounded=1;fontSize=14;fontStyle=0;strokeWidth=2;resizeParent=0;resizeLast=1;shadow=0;dashed=0;align=center;arcSize=4;whiteSpace=wrap;html=1;" parent="1" vertex="1">
          <mxGeometry x="983" y="365" width="160" height="160" as="geometry" />
        </mxCell>
        <mxCell id="LboXFsF9XmnN8-vTOQ00-62" value="&lt;font style=&quot;font-size: 14px;&quot;&gt;SKU ID&lt;/font&gt;&lt;div&gt;&lt;font size=&quot;3&quot;&gt;配料 ID&lt;/font&gt;&lt;/div&gt;&lt;div&gt;&lt;font size=&quot;3&quot;&gt;客制化规则信息&lt;/font&gt;&lt;/div&gt;" style="align=left;strokeColor=none;fillColor=none;spacingLeft=4;fontSize=12;verticalAlign=top;resizable=0;rotatable=0;part=1;html=1;" parent="LboXFsF9XmnN8-vTOQ00-61" vertex="1">
          <mxGeometry y="50" width="160" height="110" as="geometry" />
        </mxCell>
        <mxCell id="LboXFsF9XmnN8-vTOQ00-97" value="&lt;span style=&quot;font-size: 36px;&quot;&gt;商品核心模型&lt;/span&gt;" style="text;html=1;align=center;verticalAlign=middle;whiteSpace=wrap;rounded=0;" parent="1" vertex="1">
          <mxGeometry x="720" y="-180" width="244" height="30" as="geometry" />
        </mxCell>
        <mxCell id="8bBd86aQSy4LQbKgWkZF-6" value="&lt;font style=&quot;font-size: 18px;&quot;&gt;渠道商品规格&lt;/font&gt;" style="swimlane;childLayout=stackLayout;horizontal=1;startSize=50;horizontalStack=0;rounded=1;fontSize=14;fontStyle=0;strokeWidth=2;resizeParent=0;resizeLast=1;shadow=0;dashed=0;align=center;arcSize=4;whiteSpace=wrap;html=1;" parent="1" vertex="1">
          <mxGeometry x="1089" y="-40" width="160" height="120" as="geometry" />
        </mxCell>
        <mxCell id="8bBd86aQSy4LQbKgWkZF-7" value="&lt;font style=&quot;font-size: 14px;&quot;&gt;规格信息（温度/杯型/咖啡豆）&lt;/font&gt;" style="align=left;strokeColor=none;fillColor=none;spacingLeft=4;fontSize=12;verticalAlign=top;resizable=0;rotatable=0;part=1;html=1;" parent="8bBd86aQSy4LQbKgWkZF-6" vertex="1">
          <mxGeometry y="50" width="160" height="70" as="geometry" />
        </mxCell>
        <mxCell id="8bBd86aQSy4LQbKgWkZF-8" value="&lt;font style=&quot;font-size: 18px;&quot;&gt;渠道配料&lt;/font&gt;" style="swimlane;childLayout=stackLayout;horizontal=1;startSize=50;horizontalStack=0;rounded=1;fontSize=14;fontStyle=0;strokeWidth=2;resizeParent=0;resizeLast=1;shadow=0;dashed=0;align=center;arcSize=4;whiteSpace=wrap;html=1;" parent="1" vertex="1">
          <mxGeometry x="1539" y="-40" width="160" height="120" as="geometry" />
        </mxCell>
        <mxCell id="8bBd86aQSy4LQbKgWkZF-9" value="&lt;font style=&quot;font-size: 14px;&quot;&gt;配料基础信息&lt;/font&gt;&lt;div&gt;&lt;font size=&quot;3&quot;&gt;配料组层级信息&lt;/font&gt;&lt;/div&gt;" style="align=left;strokeColor=none;fillColor=none;spacingLeft=4;fontSize=12;verticalAlign=top;resizable=0;rotatable=0;part=1;html=1;" parent="8bBd86aQSy4LQbKgWkZF-8" vertex="1">
          <mxGeometry y="50" width="160" height="70" as="geometry" />
        </mxCell>
        <mxCell id="8bBd86aQSy4LQbKgWkZF-10" style="rounded=0;orthogonalLoop=1;jettySize=auto;html=1;entryX=0;entryY=0;entryDx=0;entryDy=0;exitX=1;exitY=1;exitDx=0;exitDy=0;endArrow=none;endFill=0;" parent="1" source="8bBd86aQSy4LQbKgWkZF-7" target="LboXFsF9XmnN8-vTOQ00-48" edge="1">
          <mxGeometry relative="1" as="geometry" />
        </mxCell>
        <mxCell id="8bBd86aQSy4LQbKgWkZF-11" value="&lt;span style=&quot;font-size: 18px;&quot;&gt;n:1&lt;/span&gt;" style="edgeLabel;html=1;align=center;verticalAlign=middle;resizable=0;points=[];" parent="8bBd86aQSy4LQbKgWkZF-10" vertex="1" connectable="0">
          <mxGeometry x="-0.062" y="2" relative="1" as="geometry">
            <mxPoint as="offset" />
          </mxGeometry>
        </mxCell>
        <mxCell id="8bBd86aQSy4LQbKgWkZF-12" style="rounded=0;orthogonalLoop=1;jettySize=auto;html=1;entryX=0;entryY=1;entryDx=0;entryDy=0;endArrow=none;endFill=0;exitX=1;exitY=0;exitDx=0;exitDy=0;" parent="1" source="LboXFsF9XmnN8-vTOQ00-48" target="8bBd86aQSy4LQbKgWkZF-9" edge="1">
          <mxGeometry relative="1" as="geometry">
            <mxPoint x="1469" y="160" as="sourcePoint" />
            <mxPoint x="1559" y="90" as="targetPoint" />
          </mxGeometry>
        </mxCell>
        <mxCell id="8bBd86aQSy4LQbKgWkZF-13" value="&lt;font style=&quot;font-size: 18px;&quot;&gt;1:n&lt;/font&gt;" style="edgeLabel;html=1;align=center;verticalAlign=middle;resizable=0;points=[];" parent="8bBd86aQSy4LQbKgWkZF-12" vertex="1" connectable="0">
          <mxGeometry x="0.1083" relative="1" as="geometry">
            <mxPoint x="1" as="offset" />
          </mxGeometry>
        </mxCell>
        <mxCell id="gY_HgtlnI_dmAvP6lp5Y-3" value="&lt;font style=&quot;font-size: 18px;&quot;&gt;三方SPU编码&lt;/font&gt;" style="swimlane;childLayout=stackLayout;horizontal=1;startSize=50;horizontalStack=0;rounded=1;fontSize=14;fontStyle=0;strokeWidth=2;resizeParent=0;resizeLast=1;shadow=0;dashed=0;align=center;arcSize=4;whiteSpace=wrap;html=1;" vertex="1" parent="1">
          <mxGeometry x="1740" y="150" width="160" height="120" as="geometry" />
        </mxCell>
        <mxCell id="gY_HgtlnI_dmAvP6lp5Y-4" value="&lt;div style=&quot;&quot;&gt;&lt;span style=&quot;font-size: 14px;&quot;&gt;SPU ID&lt;/span&gt;&lt;/div&gt;&lt;div style=&quot;&quot;&gt;&lt;span style=&quot;background-color: initial; font-size: 14px;&quot;&gt;三方&lt;/span&gt;&lt;span style=&quot;background-color: initial;&quot;&gt;&lt;font size=&quot;3&quot;&gt;SPU ID&lt;/font&gt;&lt;/span&gt;&lt;/div&gt;&lt;div style=&quot;&quot;&gt;&lt;span style=&quot;background-color: initial;&quot;&gt;&lt;font size=&quot;3&quot;&gt;三方SPU 名称（可选）&lt;/font&gt;&lt;/span&gt;&lt;/div&gt;&lt;div style=&quot;&quot;&gt;&lt;br&gt;&lt;/div&gt;&lt;div style=&quot;font-size: 14px;&quot;&gt;&lt;br&gt;&lt;/div&gt;" style="align=left;strokeColor=none;fillColor=none;spacingLeft=4;fontSize=12;verticalAlign=top;resizable=0;rotatable=0;part=1;html=1;" vertex="1" parent="gY_HgtlnI_dmAvP6lp5Y-3">
          <mxGeometry y="50" width="160" height="70" as="geometry" />
        </mxCell>
        <mxCell id="gY_HgtlnI_dmAvP6lp5Y-5" style="edgeStyle=orthogonalEdgeStyle;rounded=0;orthogonalLoop=1;jettySize=auto;html=1;exitX=1;exitY=0.25;exitDx=0;exitDy=0;entryX=0;entryY=0.25;entryDx=0;entryDy=0;endArrow=none;endFill=0;" edge="1" parent="1" source="LboXFsF9XmnN8-vTOQ00-49" target="gY_HgtlnI_dmAvP6lp5Y-4">
          <mxGeometry relative="1" as="geometry" />
        </mxCell>
        <mxCell id="gY_HgtlnI_dmAvP6lp5Y-6" value="1:n" style="edgeLabel;html=1;align=center;verticalAlign=middle;resizable=0;points=[];fontSize=20;" vertex="1" connectable="0" parent="gY_HgtlnI_dmAvP6lp5Y-5">
          <mxGeometry x="0.1448" y="1" relative="1" as="geometry">
            <mxPoint y="1" as="offset" />
          </mxGeometry>
        </mxCell>
        <mxCell id="gY_HgtlnI_dmAvP6lp5Y-7" value="&lt;font style=&quot;font-size: 18px;&quot;&gt;三方SKU编码&lt;/font&gt;" style="swimlane;childLayout=stackLayout;horizontal=1;startSize=50;horizontalStack=0;rounded=1;fontSize=14;fontStyle=0;strokeWidth=2;resizeParent=0;resizeLast=1;shadow=0;dashed=0;align=center;arcSize=4;whiteSpace=wrap;html=1;" vertex="1" parent="1">
          <mxGeometry x="1740" y="354" width="160" height="186" as="geometry" />
        </mxCell>
        <mxCell id="gY_HgtlnI_dmAvP6lp5Y-8" value="&lt;div style=&quot;&quot;&gt;&lt;span style=&quot;font-size: 14px;&quot;&gt;SPU ID&lt;/span&gt;&lt;/div&gt;&lt;div style=&quot;&quot;&gt;&lt;span style=&quot;background-color: initial; font-size: 14px;&quot;&gt;三方&lt;/span&gt;&lt;span style=&quot;background-color: initial;&quot;&gt;&lt;font size=&quot;3&quot;&gt;SPU ID&lt;/font&gt;&lt;/span&gt;&lt;/div&gt;&lt;div style=&quot;&quot;&gt;&lt;span style=&quot;font-size: medium; background-color: initial;&quot;&gt;SKU ID&lt;/span&gt;&lt;/div&gt;&lt;div style=&quot;&quot;&gt;&lt;span style=&quot;font-size: medium; background-color: initial;&quot;&gt;三方SKU ID&lt;/span&gt;&lt;/div&gt;&lt;div style=&quot;&quot;&gt;&lt;br&gt;&lt;/div&gt;&lt;div style=&quot;font-size: 14px;&quot;&gt;&lt;br&gt;&lt;/div&gt;" style="align=left;strokeColor=none;fillColor=none;spacingLeft=4;fontSize=12;verticalAlign=top;resizable=0;rotatable=0;part=1;html=1;" vertex="1" parent="gY_HgtlnI_dmAvP6lp5Y-7">
          <mxGeometry y="50" width="160" height="136" as="geometry" />
        </mxCell>
        <mxCell id="gY_HgtlnI_dmAvP6lp5Y-9" style="rounded=0;orthogonalLoop=1;jettySize=auto;html=1;exitX=0;exitY=0.25;exitDx=0;exitDy=0;entryX=1;entryY=0.5;entryDx=0;entryDy=0;endArrow=none;endFill=0;dashed=1;dashPattern=8 8;" edge="1" parent="1" source="gY_HgtlnI_dmAvP6lp5Y-8" target="LboXFsF9XmnN8-vTOQ00-51">
          <mxGeometry relative="1" as="geometry" />
        </mxCell>
        <mxCell id="gY_HgtlnI_dmAvP6lp5Y-10" value="1:n" style="edgeLabel;html=1;align=center;verticalAlign=middle;resizable=0;points=[];fontSize=20;" vertex="1" connectable="0" parent="gY_HgtlnI_dmAvP6lp5Y-9">
          <mxGeometry x="-0.0613" relative="1" as="geometry">
            <mxPoint x="1" as="offset" />
          </mxGeometry>
        </mxCell>
        <mxCell id="gY_HgtlnI_dmAvP6lp5Y-11" style="edgeStyle=orthogonalEdgeStyle;rounded=0;orthogonalLoop=1;jettySize=auto;html=1;exitX=0.5;exitY=1;exitDx=0;exitDy=0;endArrow=none;endFill=0;fontSize=20;" edge="1" parent="1" source="gY_HgtlnI_dmAvP6lp5Y-4" target="gY_HgtlnI_dmAvP6lp5Y-7">
          <mxGeometry relative="1" as="geometry" />
        </mxCell>
        <mxCell id="gY_HgtlnI_dmAvP6lp5Y-12" value="&lt;font style=&quot;font-size: 20px;&quot;&gt;1:n&lt;/font&gt;" style="edgeLabel;html=1;align=center;verticalAlign=middle;resizable=0;points=[];" vertex="1" connectable="0" parent="gY_HgtlnI_dmAvP6lp5Y-11">
          <mxGeometry x="-0.0714" y="1" relative="1" as="geometry">
            <mxPoint y="-1" as="offset" />
          </mxGeometry>
        </mxCell>
      </root>
    </mxGraphModel>
  </diagram>
</mxfile>
